Coordinates
version=1
nRows=9
nColumns=36
inDegrees=yes

Units are S.I. units (second, meters, Newtons, ...)
If the header above contains a line with 'inDegrees', this indicates whether rotational values are in degrees (yes) or radians (no).

endheader
time	pelvis_tilt	pelvis_list	pelvis_rotation	pelvis_tx	pelvis_ty	pelvis_tz	hip_flexion_r	hip_adduction_r	hip_rotation_r	knee_angle_r	knee_angle_r_beta	ankle_angle_r	subtalar_angle_r	mtp_angle_r	hip_flexion_l	hip_adduction_l	hip_rotation_l	knee_angle_l	knee_angle_l_beta	ankle_angle_l	subtalar_angle_l	mtp_angle_l	lumbar_extension	lumbar_bending	lumbar_rotation	arm_flex_r	arm_add_r	arm_rot_r	elbow_flex_r	pro_sup_r	arm_flex_l	arm_add_l	arm_rot_l	elbow_flex_l	pro_sup_l
      0.00000000	      0.16684887	     -1.56445874	      3.55167684	      0.81246576	      0.98460908	      0.12687985	     -1.81267193	     -6.89541227	    -10.44224188	      1.56723480	      0.02735341	      6.93005607	      2.04010643	     -6.21810832	     -2.45408046	    -10.81233243	    -16.10000525	      0.32443520	      0.00566246	      7.78364765	      7.56234852	     -6.21810832	     -0.05201859	      2.20665292	      1.05893411	     50.44969134	      7.82072900	     49.91033611	    105.05676915	     80.34596504	     41.68233813	     13.05977390	     64.17982347	    108.73322728	     88.72663550
      0.01666670	     -0.20371925	     -0.92488151	      2.88547413	      0.81348000	      0.98650598	      0.12730036	     -1.11289900	     -7.59403627	    -11.68884833	      1.16522473	      0.02033701	      7.08724521	      1.31244626	     -6.60288934	     -2.32009495	     -9.84022278	    -20.76367820	      0.39921373	      0.00696759	      8.01309656	      8.78182026	     -6.60288934	      1.66726297	      1.65887764	      0.00674361	     52.76988615	      7.58250030	     56.75490407	    111.44552387	     92.14887555	     41.71537709	      9.19802757	     60.54507172	    117.20119508	    100.99910508
      0.03333330	      0.24720156	     -0.48782091	      2.80296369	      0.81458391	      0.99038863	      0.12799532	     -0.61287232	     -8.32479503	    -12.45776750	      2.58515330	      0.04511944	      7.73578505	      2.21694819	     -6.79551518	     -2.23302231	     -9.29762897	    -23.15361628	      1.65590740	      0.02890104	      6.52391754	      6.82065627	     -6.79551518	      1.76781517	      1.16668913	     -1.33146365	     52.43977364	      8.67781794	     58.82421880	    113.22030822	     95.73111733	     41.17003595	      5.83288953	     60.52168214	    119.29068325	    104.47717227
      0.05000000	      0.18304760	     -0.41253775	      3.30877995	      0.81425173	      0.99056809	      0.12728508	     -0.20512481	     -8.47682880	    -14.11660132	      2.95935821	      0.05165054	      7.05160736	      2.65259276	     -6.94264486	     -1.15790736	     -9.42082252	    -24.09279159	      3.32028965	      0.05794999	      6.40703248	      6.50194485	     -6.94264486	      2.11068337	      0.86273401	     -2.42419359	     52.18107733	      9.33966525	     60.08072759	    113.87563632	     97.19886646	     41.24484722	      4.53936183	     60.41399514	    120.14715277	    105.22073982
      0.06666670	     -0.23099669	     -0.34482301	      3.63768830	      0.81461852	      0.98913069	      0.12745355	      0.35078688	     -8.57350336	    -15.47185418	      3.00244524	      0.05240255	      6.84141086	      3.24486973	     -7.26782073	     -0.15190952	     -9.48153627	    -24.47288800	      4.18959007	      0.07312214	      6.15395918	      6.18177787	     -7.26782073	      2.82622529	      0.64400313	     -3.09898710	     51.88859205	     10.00673737	     60.84441724	    113.85931796	     96.89976741	     41.32272284	      3.77972874	     60.28992244	    120.60793131	    104.28828253
      0.08333330	     -0.52301295	     -0.40137838	      3.89538886	      0.82008401	      0.99198957	      0.12967879	      0.41636416	     -8.42777501	    -16.55349118	      2.67187981	      0.04663310	      6.09456141	      2.96167335	     -7.27163154	      0.36491383	     -9.57144614	    -24.31444570	      4.35597554	      0.07602612	      5.86478518	      5.58627434	     -7.27163154	      3.55416974	      0.47086695	     -3.35781345	     51.15177256	     10.28740815	     61.27565145	    113.94231803	     96.88818714	     41.20113593	      3.37106827	     60.67307519	    120.57998700	    104.50946941
      0.10000000	     -0.99015178	     -0.34473831	      4.01687780	      0.81627553	      0.98891772	      0.12695284	      0.86666553	     -8.49655652	    -17.58707698	      2.59231848	      0.04524449	      5.66967038	      2.78000645	     -7.27797227	      0.99285395	     -9.46275391	    -24.06833757	      4.40337527	      0.07685340	      5.51989238	      4.84165903	     -7.27797227	      4.25593933	      0.30324933	     -3.54143532	     50.68297076	     10.64360544	     61.42818242	    113.69254158	     96.77059983	     41.29480373	      3.11757511	     60.97719328	    120.76962998	    104.85503863
      0.11666670	     -1.16937626	     -0.33924075	      4.05783855	      0.81710681	      0.99082445	      0.12663529	      0.94181905	     -8.44833857	    -18.59611955	      2.43733787	      0.04253957	      5.27452927	      2.46355995	     -7.30656721	      1.25484334	     -9.39795595	    -24.02103303	      4.33855508	      0.07572207	      5.35180196	      4.27002444	     -7.30656721	      4.53097967	      0.22197101	     -3.54215782	     50.34422565	     10.61542689	     61.63995871	    113.64588302	     95.39942924	     41.33670000	      2.93619221	     61.41075585	    120.68185972	    104.33792034
      0.13333330	     -1.34493497	     -0.33766068	      4.07302121	      0.81806891	      0.99119333	      0.12696404	      1.03495404	     -8.38233745	    -19.27842868	      2.33476177	      0.04074928	      5.03200428	      2.06012940	     -7.34042615	      1.45210056	     -9.32313703	    -24.05074726	      4.18906593	      0.07311299	      5.16597875	      3.95742856	     -7.34042615	      4.78390165	      0.18419913	     -3.37087487	     50.10368538	     10.56718837	     61.41823467	    113.46834291	     95.53821139	     41.42942018	      2.89109861	     61.86548811	    120.59907095	    105.93195020
